<svg width="75" height="110" viewBox="0 0 75 110" fill="none" xmlns="http://www.w3.org/2000/svg">
<path d="M66.8004 42.2831L56.4492 108.377L71.1205 53.9998L70.593 52.569L75.0003 38.436L69.873 50.6175L69.0634 48.4201L73.3158 39.6612L68.3406 46.4609L66.8004 42.2831Z" fill="#1E2758"/>
<path d="M21.749 110L56.7843 97.6428L38.9674 80.8745L21.749 110Z" fill="#ED313D"/>
<path d="M11.9144 0L28.8796 81.4147L0 108.415L37.2151 80.8666L11.9144 0Z" fill="#1E2758"/>
<path d="M32.9473 12.231L38.9637 80.8717L64.6315 47.8649L32.9473 12.231Z" fill="#ED313D"/>
<path d="M38.9551 80.8776L56.7719 97.6459L64.6229 47.8708L38.9551 80.8776Z" fill="#84161E"/>
<path d="M33.2264 34.6625L11.917 0.00927734L37.2175 80.8761L33.2264 34.6625Z" fill="#A7A9AC"/>
<path d="M0.00292969 108.423L24.8252 101.946L37.2176 80.8745L0.00292969 108.423Z" fill="#A7A9AC"/>
</svg>
