<svg width="442" height="385" viewBox="0 0 442 385" fill="none" xmlns="http://www.w3.org/2000/svg">
<path d="M6.03979 372.214C6.03979 370.034 7.21224 368.943 9.55713 368.943C11.902 368.943 13.0745 370.034 13.0745 372.214V375.484H7.54135V377.233C7.54135 378.405 8.22013 379.002 9.55713 379.002C10.8941 379.002 11.5729 378.405 11.5729 377.233V376.986H13.0745V377.233C13.0745 379.413 11.902 380.503 9.55713 380.503C7.21224 380.503 6.03979 379.413 6.03979 377.233V372.214ZM9.55713 370.465C8.22013 370.465 7.54135 371.041 7.54135 372.214V373.983H11.5729V372.214C11.5729 371.041 10.8941 370.465 9.55713 370.465Z" fill="#84161E"/>
<path d="M29.3748 372.214C29.3748 371.041 28.8606 370.465 27.8527 370.465C26.8654 370.465 26.3512 371.041 26.3512 372.214V380.503H24.8496V372.214C24.8496 370.034 25.8575 368.943 27.8527 368.943C28.8606 368.943 29.6217 369.231 30.1153 369.766C30.6296 369.231 31.37 368.943 32.3779 368.943C34.3937 368.943 35.4016 370.034 35.4016 372.214V380.503H33.8795V372.214C33.8795 371.041 33.3858 370.465 32.3779 370.465C31.37 370.465 30.8764 371.041 30.8764 372.214V380.503H29.3748V372.214Z" fill="#84161E"/>
<path d="M50.7143 368.943C53.0592 368.943 54.2316 370.034 54.2316 372.214V377.233C54.2316 379.413 53.0592 380.503 50.7143 380.503C49.9121 380.503 49.2333 380.38 48.6985 380.112V384.514H47.197V372.214C47.197 370.034 48.3694 368.943 50.7143 368.943ZM50.7143 379.002C52.0513 379.002 52.7301 378.405 52.7301 377.233V372.214C52.7301 371.041 52.0513 370.465 50.7143 370.465C49.3773 370.465 48.6985 371.041 48.6985 372.214V377.233C48.6985 378.405 49.3773 379.002 50.7143 379.002Z" fill="#84161E"/>
<path d="M69.5238 379.002C70.8608 379.002 71.5396 378.405 71.5396 377.233V372.214C71.5396 371.041 70.8608 370.465 69.5238 370.465C68.1868 370.465 67.508 371.041 67.508 372.214V377.233C67.508 378.405 68.1868 379.002 69.5238 379.002ZM69.5238 368.943C71.8687 368.943 73.0411 370.034 73.0411 372.214V377.233C73.0411 379.413 71.8687 380.503 69.5238 380.503C67.1789 380.503 66.0065 379.413 66.0065 377.233V372.214C66.0065 370.034 67.1789 368.943 69.5238 368.943Z" fill="#84161E"/>
<path d="M86.578 380.503L84.0685 368.943H85.6318L87.5859 377.953L89.5399 368.943H91.1443L93.0984 377.953L95.0731 368.943H96.6157L94.1063 380.503H92.1111L90.3421 372.42L88.5938 380.503H86.578Z" fill="#84161E"/>
<path d="M107.509 372.214C107.509 370.034 108.681 368.943 111.026 368.943C113.371 368.943 114.543 370.034 114.543 372.214V375.484H109.01V377.233C109.01 378.405 109.689 379.002 111.026 379.002C112.363 379.002 113.042 378.405 113.042 377.233V376.986H114.543V377.233C114.543 379.413 113.371 380.503 111.026 380.503C108.681 380.503 107.509 379.413 107.509 377.233V372.214ZM111.026 370.465C109.689 370.465 109.01 371.041 109.01 372.214V373.983H113.042V372.214C113.042 371.041 112.363 370.465 111.026 370.465Z" fill="#84161E"/>
<path d="M129.865 368.943H131.366V370.465H129.865C128.528 370.465 127.849 371.041 127.849 372.214V380.503H126.347V372.214C126.347 370.034 127.52 368.943 129.865 368.943Z" fill="#84161E"/>
<path d="M158.968 370.479V380.516H157.467V368.216C157.467 366.036 158.639 364.946 160.984 364.946H162.486V366.447H160.984C159.647 366.447 158.968 367.044 158.968 368.216V368.957H162.486V370.479H158.968Z" fill="#84161E"/>
<path d="M175.736 368.956V380.516H174.235V368.956H175.736ZM174.235 367.454V365.953H175.736V367.454H174.235Z" fill="#84161E"/>
<path d="M191.04 368.943C193.384 368.943 194.557 370.034 194.557 372.214V380.503H193.055V372.214C193.055 371.041 192.377 370.465 191.04 370.465C189.703 370.465 189.024 371.041 189.024 372.214V380.503H187.522V372.214C187.522 370.034 188.695 368.943 191.04 368.943Z" fill="#84161E"/>
<path d="M209.878 379.002C211.215 379.002 211.894 378.405 211.894 377.233V372.214C211.894 371.041 211.215 370.465 209.878 370.465C208.541 370.465 207.862 371.041 207.862 372.214V377.233C207.862 378.405 208.541 379.002 209.878 379.002ZM213.395 380.503H211.894V380.112C211.359 380.38 210.68 380.503 209.878 380.503C207.533 380.503 206.36 379.413 206.36 377.233V372.214C206.36 370.034 207.533 368.943 209.878 368.943C212.223 368.943 213.395 370.034 213.395 372.214V380.503Z" fill="#84161E"/>
<path d="M228.688 368.943C231.033 368.943 232.205 370.034 232.205 372.214V380.503H230.703V372.214C230.703 371.041 230.025 370.465 228.688 370.465C227.351 370.465 226.672 371.041 226.672 372.214V380.503H225.17V372.214C225.17 370.034 226.343 368.943 228.688 368.943Z" fill="#84161E"/>
<path d="M247.497 368.943C249.842 368.943 251.015 370.034 251.015 372.214V372.461H249.513V372.214C249.513 371.041 248.834 370.465 247.497 370.465C246.16 370.465 245.482 371.041 245.482 372.214V377.233C245.482 378.405 246.16 379.002 247.497 379.002C248.834 379.002 249.513 378.405 249.513 377.233V376.986H251.015V377.233C251.015 379.413 249.842 380.503 247.497 380.503C245.153 380.503 243.98 379.413 243.98 377.233V372.214C243.98 370.034 245.153 368.943 247.497 368.943Z" fill="#84161E"/>
<path d="M264.32 368.956V380.516H262.818V368.956H264.32ZM262.818 367.454V365.953H264.32V367.454H262.818Z" fill="#84161E"/>
<path d="M279.623 379.002C280.96 379.002 281.639 378.405 281.639 377.233V372.214C281.639 371.041 280.96 370.465 279.623 370.465C278.286 370.465 277.608 371.041 277.608 372.214V377.233C277.608 378.405 278.286 379.002 279.623 379.002ZM283.141 380.503H281.639V380.112C281.104 380.38 280.426 380.503 279.623 380.503C277.279 380.503 276.106 379.413 276.106 377.233V372.214C276.106 370.034 277.279 368.943 279.623 368.943C281.968 368.943 283.141 370.034 283.141 372.214V380.503Z" fill="#84161E"/>
<path d="M296.446 364.946H294.945V380.516H296.446V364.946Z" fill="#84161E"/>
<path d="M324.028 370.479V380.516H322.526V368.216C322.526 366.036 323.699 364.946 326.044 364.946H327.545V366.447H326.044C324.707 366.447 324.028 367.044 324.028 368.216V368.957H327.545V370.479H324.028Z" fill="#84161E"/>
<path d="M341.747 368.943H343.249V370.465H341.747C340.41 370.465 339.732 371.041 339.732 372.214V380.503H338.23V372.214C338.23 370.034 339.402 368.943 341.747 368.943Z" fill="#84161E"/>
<path d="M353.847 372.214C353.847 370.034 355.02 368.943 357.365 368.943C359.71 368.943 360.882 370.034 360.882 372.214V375.484H355.349V377.233C355.349 378.405 356.028 379.002 357.365 379.002C358.702 379.002 359.38 378.405 359.38 377.233V376.986H360.882V377.233C360.882 379.413 359.71 380.503 357.365 380.503C355.02 380.503 353.847 379.413 353.847 377.233V372.214ZM357.365 370.465C356.028 370.465 355.349 371.041 355.349 372.214V373.983H359.38V372.214C359.38 371.041 358.702 370.465 357.365 370.465Z" fill="#84161E"/>
<path d="M372.686 372.214C372.686 370.034 373.858 368.943 376.203 368.943C378.548 368.943 379.72 370.034 379.72 372.214V375.484H374.187V377.233C374.187 378.405 374.866 379.002 376.203 379.002C377.54 379.002 378.219 378.405 378.219 377.233V376.986H379.72V377.233C379.72 379.413 378.548 380.503 376.203 380.503C373.858 380.503 372.686 379.413 372.686 377.233V372.214ZM376.203 370.465C374.866 370.465 374.187 371.041 374.187 372.214V373.983H378.219V372.214C378.219 371.041 377.54 370.465 376.203 370.465Z" fill="#84161E"/>
<path d="M395.013 380.516C392.668 380.516 391.495 379.426 391.495 377.246V372.227C391.495 370.047 392.668 368.957 395.013 368.957C395.815 368.957 396.494 369.101 397.029 369.368V364.946H398.53V377.246C398.53 379.426 397.358 380.516 395.013 380.516ZM395.013 370.479C393.676 370.479 392.997 371.055 392.997 372.227V377.246C392.997 378.418 393.676 379.015 395.013 379.015C396.35 379.015 397.029 378.418 397.029 377.246V372.227C397.029 371.055 396.35 370.479 395.013 370.479Z" fill="#84161E"/>
<path d="M413.851 379.002C415.188 379.002 415.867 378.405 415.867 377.233V372.214C415.867 371.041 415.188 370.465 413.851 370.465C412.514 370.465 411.836 371.041 411.836 372.214V377.233C411.836 378.405 412.514 379.002 413.851 379.002ZM413.851 368.943C416.196 368.943 417.369 370.034 417.369 372.214V377.233C417.369 379.413 416.196 380.503 413.851 380.503C411.506 380.503 410.334 379.413 410.334 377.233V372.214C410.334 370.034 411.506 368.943 413.851 368.943Z" fill="#84161E"/>
<path d="M433.669 372.214C433.669 371.041 433.155 370.465 432.147 370.465C431.159 370.465 430.645 371.041 430.645 372.214V380.503H429.144V372.214C429.144 370.034 430.152 368.943 432.147 368.943C433.155 368.943 433.916 369.231 434.409 369.766C434.924 369.231 435.664 368.943 436.672 368.943C438.688 368.943 439.696 370.034 439.696 372.214V380.503H438.173V372.214C438.173 371.041 437.68 370.465 436.672 370.465C435.664 370.465 435.17 371.041 435.17 372.214V380.503H433.669V372.214Z" fill="#84161E"/>
<path fill-rule="evenodd" clip-rule="evenodd" d="M0 355.239H142.798V354.304H0V355.239Z" fill="#A7A9AC"/>
<path fill-rule="evenodd" clip-rule="evenodd" d="M182.892 355.239H441.681V354.304H182.892V355.239Z" fill="#A7A9AC"/>
<path d="M14.7239 341.825C5.77066 341.825 1.29407 337.662 1.29407 329.338V310.175C1.29407 301.85 5.77066 297.687 14.7239 297.687C17.7868 297.687 20.3785 298.237 22.4205 299.258V282.373H28.1536V329.338C28.1536 337.662 23.677 341.825 14.7239 341.825ZM14.7239 303.499C9.61896 303.499 7.02725 305.698 7.02725 310.175V329.338C7.02725 333.814 9.61896 336.092 14.7239 336.092C19.8287 336.092 22.4205 333.814 22.4205 329.338V310.175C22.4205 305.698 19.8287 303.499 14.7239 303.499Z" fill="#ED313D"/>
<path d="M54.157 310.161C54.157 301.836 58.6336 297.673 67.5868 297.673C76.54 297.673 81.0166 301.836 81.0166 310.161V322.648H59.8902V329.324C59.8902 333.8 62.4819 336.078 67.5868 336.078C72.6917 336.078 75.2834 333.8 75.2834 329.324V328.381H81.0166V329.324C81.0166 337.649 76.54 341.811 67.5868 341.811C58.6336 341.811 54.157 337.649 54.157 329.324V310.161ZM67.5868 303.485C62.4819 303.485 59.8902 305.684 59.8902 310.161V316.915H75.2834V310.161C75.2834 305.684 72.6917 303.485 67.5868 303.485Z" fill="#ED313D"/>
<path d="M112.753 303.499V341.825H107.02V294.86C107.02 286.535 111.497 282.373 120.45 282.373H126.183V288.106H120.45C115.345 288.106 112.753 290.383 112.753 294.86V297.687H126.183V303.499H112.753Z" fill="#ED313D"/>
<path d="M177.424 344.717C177.424 352.963 172.947 357.126 163.994 357.126C155.041 357.126 150.564 354.298 150.564 348.487V345.659H156.297V348.487C156.297 350.45 158.889 351.393 163.994 351.393C169.099 351.393 171.69 349.194 171.69 344.717V340.319C169.649 341.34 167.057 341.811 163.994 341.811C155.041 341.811 150.564 337.649 150.564 329.324V297.673H156.297V329.324C156.297 333.8 158.889 336.078 163.994 336.078C169.099 336.078 171.69 333.8 171.69 329.324V297.673H177.424V344.717Z" fill="#ED313D"/>
<path d="M216.828 297.673C225.781 297.673 230.258 301.836 230.258 310.161V341.811H224.525V310.161C224.525 305.684 221.933 303.485 216.828 303.485C211.723 303.485 209.131 305.684 209.131 310.161V341.811H203.398V310.161C203.398 301.836 207.875 297.673 216.828 297.673Z" fill="#0C0652"/>
<path d="M269.691 336.078C274.796 336.078 277.387 333.8 277.387 329.324V310.161C277.387 305.684 274.796 303.485 269.691 303.485C264.586 303.485 261.994 305.684 261.994 310.161V329.324C261.994 333.8 264.586 336.078 269.691 336.078ZM283.12 341.811H277.387V340.319C275.345 341.34 272.754 341.811 269.691 341.811C260.738 341.811 256.261 337.649 256.261 329.324V310.161C256.261 301.836 260.738 297.673 269.691 297.673C278.644 297.673 283.12 301.836 283.12 310.161V341.811Z" fill="#0C0652"/>
<path d="M322.554 297.673C331.507 297.673 335.983 301.836 335.983 310.161V341.811H330.25V310.161C330.25 305.684 327.659 303.485 322.554 303.485C317.449 303.485 314.857 305.684 314.857 310.161V341.811H309.124V310.161C309.124 301.836 313.6 297.673 322.554 297.673Z" fill="#0C0652"/>
<path d="M375.417 297.673C384.37 297.673 388.846 301.836 388.846 310.161V311.103H383.113V310.161C383.113 305.684 380.521 303.485 375.417 303.485C370.312 303.485 367.72 305.684 367.72 310.161V329.324C367.72 333.8 370.312 336.078 375.417 336.078C380.521 336.078 383.113 333.8 383.113 329.324V328.381H388.846V329.324C388.846 337.649 384.37 341.811 375.417 341.811C366.463 341.811 361.987 337.649 361.987 329.324V310.161C361.987 301.836 366.463 297.673 375.417 297.673Z" fill="#0C0652"/>
<path d="M414.849 310.161C414.849 301.836 419.326 297.673 428.279 297.673C437.232 297.673 441.709 301.836 441.709 310.161V322.648H420.583V329.324C420.583 333.8 423.174 336.078 428.279 336.078C433.384 336.078 435.976 333.8 435.976 329.324V328.381H441.709V329.324C441.709 337.649 437.232 341.811 428.279 341.811C419.326 341.811 414.849 337.649 414.849 329.324V310.161ZM428.279 303.485C423.174 303.485 420.583 305.684 420.583 310.161V316.915H435.976V310.161C435.976 305.684 433.384 303.485 428.279 303.485Z" fill="#0C0652"/>
<path d="M291.201 97.9222L267.461 250.038L301.109 124.888L299.899 121.596L310.007 89.0681L298.248 117.104L296.391 112.047L306.144 91.888L294.733 107.537L291.201 97.9222Z" fill="#1E2758"/>
<path d="M187.879 253.774L268.23 225.333L227.369 186.741L187.879 253.774Z" fill="#ED313D"/>
<path d="M165.325 0.606812L204.233 187.984L138 250.126L223.35 186.723L165.325 0.606812Z" fill="#1E2758"/>
<path d="M213.563 28.7563L227.361 186.734L286.228 110.769L213.563 28.7563Z" fill="#ED313D"/>
<path d="M227.34 186.749L268.201 225.341L286.207 110.783L227.34 186.749Z" fill="#84161E"/>
<path d="M214.202 80.3833L165.331 0.628052L223.355 186.745L214.202 80.3833Z" fill="#A7A9AC"/>
<path d="M138.008 250.144L194.936 235.236L223.357 186.741L138.008 250.144Z" fill="#A7A9AC"/>
</svg>
