<svg width="618" height="254" viewBox="0 0 618 254" fill="none" xmlns="http://www.w3.org/2000/svg">
<path d="M153.201 97.8346L129.461 249.95L163.109 124.801L161.899 121.508L172.007 88.9805L160.248 117.016L158.391 111.959L168.144 91.8003L156.733 107.45L153.201 97.8346Z" fill="#1E2758"/>
<path d="M49.8795 253.686L130.23 225.246L89.3686 186.653L49.8795 253.686Z" fill="#ED313D"/>
<path d="M27.3247 0.519165L66.2332 187.897L0 250.039L85.3502 186.635L27.3247 0.519165Z" fill="#1E2758"/>
<path d="M75.5628 28.6687L89.361 186.647L148.228 110.681L75.5628 28.6687Z" fill="#ED313D"/>
<path d="M89.3397 186.661L130.201 225.253L148.207 110.695L89.3397 186.661Z" fill="#84161E"/>
<path d="M76.202 80.2956L27.3306 0.540405L85.3553 186.657L76.202 80.2956Z" fill="#A7A9AC"/>
<path d="M0.0078125 250.057L56.9359 235.149L85.3569 186.653L0.0078125 250.057Z" fill="#A7A9AC"/>
<path d="M190.724 186.972C181.771 186.972 177.294 182.809 177.294 174.484V155.321C177.294 146.996 181.771 142.834 190.724 142.834C193.787 142.834 196.378 143.384 198.42 144.405V127.519H204.154V174.484C204.154 182.809 199.677 186.972 190.724 186.972ZM190.724 148.646C185.619 148.646 183.027 150.845 183.027 155.321V174.484C183.027 178.961 185.619 181.238 190.724 181.238C195.829 181.238 198.42 178.961 198.42 174.484V155.321C198.42 150.845 195.829 148.646 190.724 148.646Z" fill="#ED313D"/>
<path d="M230.157 155.307C230.157 146.983 234.634 142.82 243.587 142.82C252.54 142.82 257.017 146.983 257.017 155.307V167.795H235.89V174.47C235.89 178.947 238.482 181.225 243.587 181.225C248.692 181.225 251.283 178.947 251.283 174.47V173.528H257.017V174.47C257.017 182.795 252.54 186.958 243.587 186.958C234.634 186.958 230.157 182.795 230.157 174.47V155.307ZM243.587 148.632C238.482 148.632 235.89 150.831 235.89 155.307V162.062H251.283V155.307C251.283 150.831 248.692 148.632 243.587 148.632Z" fill="#ED313D"/>
<path d="M288.753 148.646V186.972H283.02V140.007C283.02 131.682 287.497 127.519 296.45 127.519H302.183V133.252H296.45C291.345 133.252 288.753 135.53 288.753 140.007V142.834H302.183V148.646H288.753Z" fill="#ED313D"/>
<path d="M353.424 189.864C353.424 198.11 348.947 202.272 339.994 202.272C331.041 202.272 326.564 199.445 326.564 193.633V190.806H332.297V193.633C332.297 195.597 334.889 196.539 339.994 196.539C345.099 196.539 347.69 194.34 347.69 189.864V185.466C345.649 186.487 343.057 186.958 339.994 186.958C331.041 186.958 326.564 182.795 326.564 174.47V142.82H332.297V174.47C332.297 178.947 334.889 181.225 339.994 181.225C345.099 181.225 347.69 178.947 347.69 174.47V142.82H353.424V189.864Z" fill="#ED313D"/>
<path d="M392.828 142.82C401.781 142.82 406.258 146.983 406.258 155.307V186.958H400.525V155.307C400.525 150.831 397.933 148.632 392.828 148.632C387.723 148.632 385.131 150.831 385.131 155.307V186.958H379.398V155.307C379.398 146.983 383.875 142.82 392.828 142.82Z" fill="#0C0652"/>
<path d="M445.691 181.225C450.796 181.225 453.387 178.947 453.387 174.47V155.307C453.387 150.831 450.796 148.632 445.691 148.632C440.586 148.632 437.994 150.831 437.994 155.307V174.47C437.994 178.947 440.586 181.225 445.691 181.225ZM459.12 186.958H453.387V185.466C451.345 186.487 448.754 186.958 445.691 186.958C436.738 186.958 432.261 182.795 432.261 174.47V155.307C432.261 146.983 436.738 142.82 445.691 142.82C454.644 142.82 459.12 146.983 459.12 155.307V186.958Z" fill="#0C0652"/>
<path d="M498.554 142.82C507.507 142.82 511.983 146.983 511.983 155.307V186.958H506.25V155.307C506.25 150.831 503.659 148.632 498.554 148.632C493.449 148.632 490.857 150.831 490.857 155.307V186.958H485.124V155.307C485.124 146.983 489.6 142.82 498.554 142.82Z" fill="#0C0652"/>
<path d="M551.417 142.82C560.37 142.82 564.846 146.983 564.846 155.307V156.25H559.113V155.307C559.113 150.831 556.521 148.632 551.417 148.632C546.312 148.632 543.72 150.831 543.72 155.307V174.47C543.72 178.947 546.312 181.225 551.417 181.225C556.521 181.225 559.113 178.947 559.113 174.47V173.528H564.846V174.47C564.846 182.795 560.37 186.958 551.417 186.958C542.463 186.958 537.987 182.795 537.987 174.47V155.307C537.987 146.983 542.463 142.82 551.417 142.82Z" fill="#0C0652"/>
<path d="M590.849 155.307C590.849 146.983 595.326 142.82 604.279 142.82C613.232 142.82 617.709 146.983 617.709 155.307V167.795H596.583V174.47C596.583 178.947 599.174 181.225 604.279 181.225C609.384 181.225 611.976 178.947 611.976 174.47V173.528H617.709V174.47C617.709 182.795 613.232 186.958 604.279 186.958C595.326 186.958 590.849 182.795 590.849 174.47V155.307ZM604.279 148.632C599.174 148.632 596.583 150.831 596.583 155.307V162.062H611.976V155.307C611.976 150.831 609.384 148.632 604.279 148.632Z" fill="#0C0652"/>
</svg>
